<?xml version="1.0" encoding="UTF-8"?>
<svg version="1.1" xmlns="http://www.w3.org/2000/svg" width="800" height="270">
<path d="M0 0 C4.95 0 9.9 0 15 0 C15 23.43 15 46.86 15 71 C10.38 71 5.76 71 1 71 C0.67 69.68 0.34 68.36 0 67 C-0.763125 67.639375 -1.52625 68.27875 -2.3125 68.9375 C-7.8538975 73.1902004 -14.29661404 72.55596803 -21 72 C-27.22130515 70.33429572 -31.57070448 66.35226498 -35 61 C-39.32845323 52.94744361 -39.22838066 42.8174254 -37.37890625 34.05859375 C-34.9524523 26.99491669 -30.31130569 22.11324656 -23.6171875 18.83203125 C-17.67765656 16.94379231 -11.15988897 17.18073177 -5.375 19.375 C-3 21 -3 21 -1 23 C-0.67 15.41 -0.34 7.82 0 0 Z M-19 32 C-23.17330988 36.60503159 -23.34863667 41.15603456 -23.27734375 47.13671875 C-22.86478705 51.39593085 -21.65543042 54.63755096 -19 58 C-15.56148744 60.52157588 -13.69492859 61 -9.4375 61 C-5.23741934 59.77815835 -3.64051505 58.4703912 -1 55 C1.61164696 49.06443873 1.29753608 43.24321708 0 37 C-1.80049676 33.33470303 -2.93639231 31.58498423 -6.5 29.625 C-11.6258475 28.34353813 -14.59128765 29.37353307 -19 32 Z " fill="#024F90" transform="translate(422,100)"/>
<path d="M0 0 C0.59039062 0.36867188 1.18078125 0.73734375 1.7890625 1.1171875 C3.1503125 1.9215625 3.1503125 1.9215625 4.5390625 2.7421875 C10.52593206 9.06166092 13.13799794 17.26258128 13.0078125 25.87109375 C12.35946148 32.5282694 10.17644198 39.03706389 5.7890625 44.1171875 C-3.30647928 51.24930052 -10.87831617 51.77397799 -22.2109375 51.1171875 C-27.68040455 50.05344735 -32.61095957 47.41885605 -36.2109375 43.1171875 C-41.91648555 33.75700462 -43.00760795 25.92233848 -41.2109375 15.1171875 C-38.90167078 7.79951114 -35.00462288 2.75359052 -28.2109375 -0.8828125 C-19.38415383 -4.45790645 -8.46416458 -4.59664368 0 0 Z M-22.2109375 11.1171875 C-22.7678125 11.5090625 -23.3246875 11.9009375 -23.8984375 12.3046875 C-27.48794462 17.26162591 -27.56197468 23.19273793 -26.6796875 29.0078125 C-25.66050133 33.59415028 -24.3572524 36.29077444 -20.5234375 39.0546875 C-16.38586408 40.38183369 -13.34099248 40.49671102 -9.2109375 39.1171875 C-4.67943027 35.76781259 -3.10095201 32.63527748 -2.2109375 27.1171875 C-2.21808059 18.47108939 -2.21808059 18.47108939 -6.2109375 11.1171875 C-12.31891325 7.26650714 -16.30015527 6.91742118 -22.2109375 11.1171875 Z " fill="#024F90" transform="translate(488.2109375,120.8828125)"/>
<path d="M0 0 C0.59039062 0.36867188 1.18078125 0.73734375 1.7890625 1.1171875 C3.1503125 1.9215625 3.1503125 1.9215625 4.5390625 2.7421875 C10.52593206 9.06166092 13.13799794 17.26258128 13.0078125 25.87109375 C12.35946148 32.5282694 10.17644198 39.03706389 5.7890625 44.1171875 C-3.30647928 51.24930052 -10.87831617 51.77397799 -22.2109375 51.1171875 C-27.68040455 50.05344735 -32.61095957 47.41885605 -36.2109375 43.1171875 C-41.91648555 33.75700462 -43.00760795 25.92233848 -41.2109375 15.1171875 C-38.90167078 7.79951114 -35.00462288 2.75359052 -28.2109375 -0.8828125 C-19.38415383 -4.45790645 -8.46416458 -4.59664368 0 0 Z M-22.2109375 11.1171875 C-22.7678125 11.5090625 -23.3246875 11.9009375 -23.8984375 12.3046875 C-27.48794462 17.26162591 -27.56197468 23.19273793 -26.6796875 29.0078125 C-25.66050133 33.59415028 -24.3572524 36.29077444 -20.5234375 39.0546875 C-16.38586408 40.38183369 -13.34099248 40.49671102 -9.2109375 39.1171875 C-4.67943027 35.76781259 -3.10095201 32.63527748 -2.2109375 27.1171875 C-2.21808059 18.47108939 -2.21808059 18.47108939 -6.2109375 11.1171875 C-12.31891325 7.26650714 -16.30015527 6.91742118 -22.2109375 11.1171875 Z " fill="#024F90" transform="translate(323.2109375,120.8828125)"/>
<path d="M0 0 C2.31 0 4.62 0 7 0 C10.89592311 7.42946008 14.21626956 15.0606782 17.42053223 22.80755615 C18.55056943 25.53901988 19.68887897 28.26700963 20.82684326 30.99517822 C21.3988552 32.36657085 21.97051271 33.73811137 22.54180908 35.10980225 C25.08334162 41.21010747 27.65423059 47.29756063 30.25 53.375 C30.6202832 54.24745361 30.99056641 55.11990723 31.37207031 56.01879883 C32.75886142 59.77663403 32.75886142 59.77663403 35 63 C35.46784912 61.86796143 35.93569824 60.73592285 36.41772461 59.56958008 C52.06893426 21.70988594 52.06893426 21.70988594 57.5 9 C57.85441162 8.16702393 58.20882324 7.33404785 58.57397461 6.47583008 C60.87541498 1.12458502 60.87541498 1.12458502 62 0 C64.31 0 66.62 0 69 0 C69 23.43 69 46.86 69 71 C67.35 71 65.7 71 64 71 C63.67 50.87 63.34 30.74 63 10 C59.98875 17.280625 56.9775 24.56125 53.875 32.0625 C52.93769043 34.32746338 52.00038086 36.59242676 51.03466797 38.92602539 C46.62444377 49.59188227 42.246503 60.26775303 38 71 C36.02 71 34.04 71 32 71 C26.90104316 61.54670562 23.0307785 51.56288995 19 41.625 C17.94455553 39.03348087 16.88800341 36.44241545 15.83129883 33.85140991 C15.17909653 32.25108787 14.52780564 30.6503939 13.87768555 29.04922485 C11.29038775 22.68243798 8.64361713 16.34468112 6 10 C5.67 30.13 5.34 50.26 5 71 C3.35 71 1.7 71 0 71 C0 47.57 0 24.14 0 0 Z " fill="#000000" transform="translate(94,100)"/>
<path d="M0 0 C4.95 0 9.9 0 15 0 C15 4.95 15 9.9 15 15 C18.3 15 21.6 15 25 15 C25 18.3 25 21.6 25 25 C21.7 25 18.4 25 15 25 C15.495 39.355 15.495 39.355 16 54 C20.48483147 54.71343747 20.48483147 54.71343747 25 55 C25.02687279 56.81242052 25.04633715 58.62495233 25.0625 60.4375 C25.07410156 61.44683594 25.08570313 62.45617187 25.09765625 63.49609375 C25 66 25 66 24 67 C21.40218031 67.15420847 18.84924714 67.23169544 16.25 67.25 C15.53328125 67.270625 14.8165625 67.29125 14.078125 67.3125 C9.49690926 67.34618541 6.60035535 66.87510391 3 64 C0.38589882 61.4052333 0.00690448 60.07434072 -0.34057617 56.33300781 C-0.34010383 54.87296071 -0.32330994 53.41285689 -0.29296875 51.953125 C-0.28872391 51.18192322 -0.28447906 50.41072144 -0.28010559 49.6161499 C-0.26335383 47.16040685 -0.22570939 44.70549371 -0.1875 42.25 C-0.17244857 40.58204313 -0.15876097 38.91407335 -0.14648438 37.24609375 C-0.11346194 33.16374422 -0.06170484 29.08201268 0 25 C-2.97 25 -5.94 25 -9 25 C-9 21.7 -9 18.4 -9 15 C-6.03 15 -3.06 15 0 15 C0 10.05 0 5.1 0 0 Z " fill="#024F90" transform="translate(252,104)"/>
<path d="M0 0 C2.6185683 2.17428679 4.07268798 4.18717681 5.51953125 7.26171875 C5.76953125 11.13671875 5.76953125 11.13671875 5.51953125 14.26171875 C4.19953125 14.26171875 2.87953125 14.26171875 1.51953125 14.26171875 C1.225625 13.33939453 1.225625 13.33939453 0.92578125 12.3984375 C-0.80554312 7.63782497 -0.80554312 7.63782497 -4.140625 3.9609375 C-9.74218877 1.53397661 -15.62421994 1.94406277 -21.48046875 3.26171875 C-24.76950896 4.57227767 -24.76950896 4.57227767 -26.48046875 7.26171875 C-27.148942 10.2759254 -26.93411972 12.08616195 -26.48046875 15.26171875 C-23.74098582 17.89199545 -21.09469369 18.8541122 -17.453125 19.76171875 C-16.49599609 20.00921875 -15.53886719 20.25671875 -14.55273438 20.51171875 C-13.55951172 20.75921875 -12.56628906 21.00671875 -11.54296875 21.26171875 C2.91173814 24.87774966 2.91173814 24.87774966 6.33203125 29.94921875 C7.7550055 33.91856797 8.26748186 37.09812704 7.51953125 41.26171875 C5.00360308 46.20039257 2.12514655 49.08741285 -3.18359375 50.81640625 C-10.82264397 52.2974466 -20.17474934 52.65030186 -26.96875 48.46484375 C-30.81382731 45.40467887 -33.04437661 41.9290182 -34.48046875 37.26171875 C-34.48046875 35.94171875 -34.48046875 34.62171875 -34.48046875 33.26171875 C-32.83046875 33.26171875 -31.18046875 33.26171875 -29.48046875 33.26171875 C-29.13435547 34.18404297 -29.13435547 34.18404297 -28.78125 35.125 C-26.73798462 40.29481981 -26.73798462 40.29481981 -22.98046875 44.26171875 C-15.7800715 47.14187765 -9.69516322 46.58457117 -2.3984375 44.2109375 C-0.13973599 43.29193812 -0.13973599 43.29193812 1.51953125 40.26171875 C2.19044893 36.16934691 2.19044893 36.16934691 1.51953125 32.26171875 C-2.77582276 26.88196389 -10.92984513 25.99193588 -17.31225586 24.78027344 C-23.00167498 23.64303724 -26.99045223 21.50273362 -31.35546875 17.57421875 C-33.16774698 13.84898016 -33.09983453 10.31574932 -32.48046875 6.26171875 C-30.70834587 2.43393332 -29.16365516 0.71717636 -25.66796875 -1.61328125 C-17.93859531 -4.40723226 -7.08616312 -4.3999052 0 0 Z " fill="#000000" transform="translate(637.48046875,120.73828125)"/>
<path d="M0 0 C1.98 0 3.96 0 6 0 C8.10429541 5.13929279 10.20374133 10.28053031 12.29882812 15.42358398 C13.01138355 17.1708643 13.72523301 18.9176175 14.44042969 20.66381836 C15.47155606 23.18203577 16.49792683 25.70214756 17.5234375 28.22265625 C17.84122162 28.99585709 18.15900574 29.76905792 18.48641968 30.56568909 C20.28230408 34.99460333 21.77467455 39.37961341 23 44 C23.66 44 24.32 44 25 44 C25.10054687 43.35579102 25.20109375 42.71158203 25.3046875 42.04785156 C26.2346318 37.97150863 27.6709644 34.14971384 29.125 30.234375 C29.58543701 28.98337006 29.58543701 28.98337006 30.05517578 27.70709229 C30.70231107 25.95152808 31.35127494 24.19663697 32.00195312 22.44238281 C33.00102487 19.74723525 33.99310357 17.04958742 34.984375 14.3515625 C35.61417008 12.64568071 36.24436444 10.93994626 36.875 9.234375 C37.17293457 8.42401794 37.47086914 7.61366089 37.77783203 6.77874756 C39.88466307 1.11533693 39.88466307 1.11533693 41 0 C42.66617115 -0.04063832 44.33388095 -0.042721 46 0 C44.10767386 6.61973851 41.94102437 13.04871469 39.41796875 19.453125 C39.08130692 20.31580994 38.74464508 21.17849487 38.39778137 22.06732178 C37.689506 23.87976167 36.97933358 25.6914613 36.26733398 27.50244141 C35.19627742 30.2276665 34.13183698 32.95540345 33.06835938 35.68359375 C30.00631112 43.51931456 26.91879884 51.34649005 23.67578125 59.109375 C23.22759033 60.18670898 22.77939941 61.26404297 22.31762695 62.37402344 C20.39560888 66.20452676 19.07450476 67.64183175 15 69 C13.27204648 69.06802967 11.54164635 69.08495645 9.8125 69.0625 C8.46091797 69.04896484 8.46091797 69.04896484 7.08203125 69.03515625 C6.39496094 69.02355469 5.70789063 69.01195312 5 69 C5 67.68 5 66.36 5 65 C5.68707031 64.84144531 6.37414062 64.68289062 7.08203125 64.51953125 C12.7015826 63.19888038 12.7015826 63.19888038 17 59.625 C17.33 58.75875 17.66 57.8925 18 57 C18.4125 56.195625 18.825 55.39125 19.25 54.5625 C21.16424668 48.02215717 17.30225621 41.52326817 14.74609375 35.60546875 C14.32578384 34.61750809 13.90547394 33.62954742 13.47242737 32.61164856 C12.13359503 29.46760222 10.7859353 26.32743823 9.4375 23.1875 C8.08715737 20.02902675 6.73864904 16.8697836 5.39186096 13.70979309 C4.55407905 11.74560639 3.71391288 9.78243469 2.87120056 7.82035828 C2.49403397 6.93886612 2.11686737 6.05737396 1.72827148 5.14916992 C1.39375473 4.3700676 1.05923798 3.59096527 0.71458435 2.78825378 C0 1 0 1 0 0 Z " fill="#000000" transform="translate(168,120)"/>
<path d="M0 0 C1.65 0 3.3 0 5 0 C5 22.11 5 44.22 5 67 C18.53 67 32.06 67 46 67 C46 68.32 46 69.64 46 71 C30.82 71 15.64 71 0 71 C0 47.57 0 24.14 0 0 Z " fill="#000000" transform="translate(539,100)"/>
<path d="M0 0 C1.65 0 3.3 0 5 0 C5 5.28 5 10.56 5 16 C8.63 16 12.26 16 16 16 C16 17.32 16 18.64 16 20 C12.37 20 8.74 20 5 20 C5.33 33.53 5.66 47.06 6 61 C9.3 61.66 12.6 62.32 16 63 C16 64.32 16 65.64 16 67 C7.0247473 67.62739631 7.0247473 67.62739631 2.9375 65.125 C-0.78606586 61.04108906 -0.12830959 57.10095596 -0.09765625 51.8359375 C-0.0962413 50.92872955 -0.09482635 50.02152161 -0.09336853 49.08682251 C-0.08776096 46.18284845 -0.07520718 43.27895085 -0.0625 40.375 C-0.05748598 38.40885528 -0.0529229 36.44270935 -0.04882812 34.4765625 C-0.03778906 29.6510121 -0.02051935 24.82551903 0 20 C-2.97 20 -5.94 20 -9 20 C-9 18.68 -9 17.36 -9 16 C-6.03 16 -3.06 16 0 16 C0 10.72 0 5.44 0 0 Z " fill="#000000" transform="translate(658,104)"/>
<path d="M0 0 C10.23 0 20.46 0 31 0 C31 3.96 31 7.92 31 12 C20.77 12 10.54 12 0 12 C0 8.04 0 4.08 0 0 Z " fill="#024F90" transform="translate(345,138)"/>
<path d="M0 0 C1.65 0 3.3 0 5 0 C5 16.83 5 33.66 5 51 C3.35 51 1.7 51 0 51 C0 34.17 0 17.34 0 0 Z " fill="#000000" transform="translate(589,120)"/>
<path d="M0 0 C1.65 0 3.3 0 5 0 C5 3.3 5 6.6 5 10 C3.35 10 1.7 10 0 10 C0 6.7 0 3.4 0 0 Z " fill="#000000" transform="translate(589,100)"/>
</svg>
